<?xml version="1.0" standalone="no"?><!DOCTYPE svg PUBLIC "-//W3C//DTD SVG 1.1//EN" "http://www.w3.org/Graphics/SVG/1.1/DTD/svg11.dtd"><svg t="1633173473329" class="icon" viewBox="0 0 1024 1024" version="1.1" xmlns="http://www.w3.org/2000/svg" p-id="836" xmlns:xlink="http://www.w3.org/1999/xlink" width="200" height="200"><defs><style type="text/css"></style></defs><path d="M512.641788 762.447544c-64.64073-10.829054-128.793895-61.381749-128.793895-139.379168V491.092483l127.408187-28.522497 129.987144 28.650804v146.423185c-0.243782 1.141926-0.962297 2.104224-1.077773 3.24615-8.981443 70.837926-71.620594 112.114072-127.523663 121.570249M675.193079 437.062687l-156.174466-34.424589a14.652583 14.652583 0 0 0-3.24615 0 27.111128 27.111128 0 0 0-5.414527 0 23.261938 23.261938 0 0 0-3.554086 0c-1.20608 0.179629-2.283853-0.115476-3.489932 0.115476l-153.467203 34.424589a27.470386 27.470386 0 0 0-3.84919 1.680813 29.728577 29.728577 0 0 0-22.273979 28.522497v161.473518a24.455187 24.455187 0 0 0 1.206079 5.902092c6.197196 107.00748 94.728564 175.612876 183.19578 188.251049a33.192848 33.192848 0 0 0 4.272601 0.295104h0.359258a33.949855 33.949855 0 0 0 4.272601-0.243782c76.072824-10.893208 162.615444-66.975905 180.539839-164.232104a29.510456 29.510456 0 0 0 3.84919-14.113696V467.31732a29.664424 29.664424 0 0 0-22.27398-28.522497 26.084677 26.084677 0 0 0-3.977496-1.80912" fill="#188AFA" p-id="837"></path><path d="M1014.191238 457.270934L535.390501 7.890839a39.056447 39.056447 0 0 0-46.575198 0L10.232687 457.270934a30.075004 30.075004 0 1 0 41.160671 43.867935l13.536318-12.638174v394.606123a141.25244 141.25244 0 0 0 141.239609 140.880351h612.021201a141.303763 141.303763 0 0 0 141.367916-140.880351v-100.925761a30.087835 30.087835 0 1 0-60.17567 0v100.925761a81.102432 81.102432 0 0 1-81.243569 80.704682H206.194946a80.999787 80.999787 0 0 1-81.128093-80.704682v-451.125062L512.154224 68.605395l387.151524 363.312208V601.628388a30.087835 30.087835 0 1 0 60.17567 0v-113.204676l13.536318 12.702326a30.075004 30.075004 0 1 0 41.160671-43.867934" p-id="838"></path></svg>