<?xml version="1.0" encoding="utf-8"?>
<!-- Generator: Adobe Illustrator 22.0.1, SVG Export Plug-In . SVG Version: 6.00 Build 0)  -->
<svg version="1.1" id="图层_1" xmlns="http://www.w3.org/2000/svg" xmlns:xlink="http://www.w3.org/1999/xlink" x="0px" y="0px"
	 viewBox="0 0 410 404" style="enable-background:new 0 0 410 404;" xml:space="preserve">
<style type="text/css">
	.st0{fill:url(#Layer_1_);}
	.st1{fill:url(#Layer_copy_1_);}
</style>
<title>logo-svg</title>
<linearGradient id="Layer_1_" gradientUnits="userSpaceOnUse" x1="107.0463" y1="447.4038" x2="336.0463" y2="136.4038" gradientTransform="matrix(1 0 0 -1 0 406)">
	<stop  offset="0" style="stop-color:#41D1FF"/>
	<stop  offset="1" style="stop-color:#BD34FE"/>
</linearGradient>
<path id="Layer" class="st0" d="M399.6,59.5l-184,329c-3.8,6.8-13.6,6.8-17.4,0.1L10.6,59.6C6.4,52.2,12.7,43.3,21,44.8l145.6,25.4
	c0,0,7.4,2.2,9.7,9.7C178.6,87.3,203,174,203,174c1.2,0.2,2.4,0.2,3.6,0c0,0,26.3-88,28.3-94.1S243,72,243,72l146.1-27.2
	C397.4,43.3,403.8,52.1,399.6,59.5z"/>
<linearGradient id="Layer_copy_1_" gradientUnits="userSpaceOnUse" x1="203.9374" y1="357.0807" x2="236.8494" y2="131.3097" gradientTransform="matrix(1 0 0 -1 0 406)">
	<stop  offset="0" style="stop-color:#FFEA83"/>
	<stop  offset="8.299999e-02" style="stop-color:#FFDD35"/>
	<stop  offset="1" style="stop-color:#FFA800"/>
</linearGradient>
<path id="Layer_copy" class="st1" d="M312.8,50.3c0,0-73.5,13.4-76,14c-2.4,0.6-2.8,1.6-5.9,11.2c-2.4,7.6-24.5,90-25.9,90
	s-21.7-78.7-25.8-89.8c-4.1-11-3.6-12.1-6.4-13c-2.8-0.8-69.7-13.2-76.2-13.9s-7.8,3.7-7.3,7.8c0,0,4.1,0.7,4.2,0.8l111.2,248.1
	c2.9,4.7,4.1,4.4,6.8,0.1l105-247.4l4.2-0.7C321.6,54.2,316.2,49.7,312.8,50.3z"/>
</svg>
